<svg width="36" height="30" viewBox="0 0 36 30" fill="none" xmlns="http://www.w3.org/2000/svg">
<g clip-path="url(#clip0)">
<path d="M20.6918 26.0801L18.9078 27.3809C18.1525 27.9316 16.9311 27.9316 16.1837 27.3809L0.562306 15.9961C-0.193051 15.4453 -0.193051 14.5547 0.562306 14.0098L16.1837 2.61914C16.9391 2.06836 18.1605 2.06836 18.9078 2.61914L20.6918 3.91992C21.4552 4.47656 21.4391 5.38477 20.6596 5.92969L10.9766 12.6563H34.0712C35.14 12.6563 35.9998 13.2832 35.9998 14.0625V15.9375C35.9998 16.7168 35.14 17.3438 34.0712 17.3438H10.9766L20.6596 24.0703C21.4471 24.6152 21.4632 25.5234 20.6918 26.0801Z" fill="white"/>
</g>
<defs>
<clipPath id="clip0">
<rect width="36" height="30" fill="white"/>
</clipPath>
</defs>
</svg>
